# xmcd
#
# Track frame offsets:
#	150
#	11526
#	23677
#	35209
#	46380
#	59087
#	70176
#	81156
#	93598
#	105814
#	117975
#	130411
#	143225
#	156167
#	168792
#	181593
#	194857
#	207650
#	221263
#	233201
#	246062
#	258152
#	271569
#	284442
#	297325
#
# Disc length: 4142 seconds
#
# Revision: 0
# Processed by: cddbd v1.5.1PL2 Copyright (c) Steve Scherf et al.
# Submitted via: EasyCDDAExtractor 9.0.0.1
#
DISCID=6d102c19
DTITLE=Clarence 'Gatemouth' Brown - Boogie Uproar, Texas Blues and R&B (1947-5
DTITLE=4) - Disc A
DYEAR=2006
DGENRE=Blues
TTITLE0=Gatemouth Boogie
TTITLE1=Guitar In My Hand
TTITLE2=After Sunset
TTITLE3=Without Me Baby
TTITLE4=Didn't Reach My Goal
TTITLE5=Atomic Energy
TTITLE6=Mercy On Me
TTITLE7=My Time's Expensive
TTITLE8=Mary Is Fine
TTITLE9=I Live My Life
TTITLE10=2 O'Clock In The Morning
TTITLE11=Boogie Rambler
TTITLE12=I've Been Mistreated
TTITLE13=It Can Never Be That Way
TTITLE14=Justice Blues
TTITLE15=Just Got Lucky
TTITLE16=She Walk Right In
TTITLE17=Win With Me, Baby
TTITLE18=Too Late, Baby
TTITLE19=Taking My Chances
TTITLE20=Baby Take It Easy
TTITLE21=She Winked Her Eye
TTITLE22=Sad Hour
TTITLE23=Pale Dry Boogie (Pt.1)
TTITLE24=Pale Dry Boogie (Pt.2)
EXTD=
EXTT0=
EXTT1=
EXTT2=
EXTT3=
EXTT4=
EXTT5=
EXTT6=
EXTT7=
EXTT8=
EXTT9=
EXTT10=
EXTT11=
EXTT12=
EXTT13=
EXTT14=
EXTT15=
EXTT16=
EXTT17=
EXTT18=
EXTT19=
EXTT20=
EXTT21=
EXTT22=
EXTT23=
EXTT24=
PLAYORDER=
